<svg width="17" height="17" viewBox="0 0 17 17" fill="none" xmlns="http://www.w3.org/2000/svg">
<g clip-path="url(#clip0_1036_451)">
<path d="M16.2917 13.4583C16.2917 13.8341 16.1425 14.1944 15.8768 14.4601C15.6111 14.7257 15.2508 14.875 14.875 14.875H2.12504C1.74932 14.875 1.38898 14.7257 1.12331 14.4601C0.85763 14.1944 0.708374 13.8341 0.708374 13.4583V5.66667C0.708374 5.29094 0.85763 4.93061 1.12331 4.66493C1.38898 4.39926 1.74932 4.25 2.12504 4.25H4.95837L6.37504 2.125H10.625L12.0417 4.25H14.875C15.2508 4.25 15.6111 4.39926 15.8768 4.66493C16.1425 4.93061 16.2917 5.29094 16.2917 5.66667V13.4583Z" stroke="#FFF371" stroke-width="2" stroke-linecap="round" stroke-linejoin="round"/>
<path d="M8.49996 12.0417C10.0648 12.0417 11.3333 10.7731 11.3333 9.20833C11.3333 7.64353 10.0648 6.375 8.49996 6.375C6.93515 6.375 5.66663 7.64353 5.66663 9.20833C5.66663 10.7731 6.93515 12.0417 8.49996 12.0417Z" stroke="#FFF371" stroke-width="2" stroke-linecap="round" stroke-linejoin="round"/>
</g>
<defs>
<clipPath id="clip0_1036_451">
<rect width="17" height="17" fill="white"/>
</clipPath>
</defs>
</svg>
