<svg width="24" height="24" viewBox="0 0 24 24" fill="none" xmlns="http://www.w3.org/2000/svg">
<mask id="mask0_479_801" style="mask-type:alpha" maskUnits="userSpaceOnUse" x="0" y="0" width="24" height="24">
<path d="M0 0H24V24H0V0Z" fill="#D9D9D9"/>
</mask>
<g mask="url(#mask0_479_801)">
<path d="M12 22.3792C10.2333 22.3792 8.79167 22.0948 7.675 21.5258C6.55833 20.9569 6 20.2224 6 19.3223C6 18.9148 6.12083 18.5369 6.3625 18.1887C6.60417 17.8406 6.94167 17.5392 7.375 17.2844L8.95 18.7874C8.8 18.8553 8.6375 18.9317 8.4625 19.0167C8.2875 19.1016 8.15 19.2035 8.05 19.3223C8.26667 19.5941 8.76667 19.8318 9.55 20.0356C10.3333 20.2394 11.15 20.3413 12 20.3413C12.85 20.3413 13.6708 20.2394 14.4625 20.0356C15.2542 19.8318 15.7583 19.5941 15.975 19.3223C15.8583 19.1865 15.7083 19.0761 15.525 18.9912C15.3417 18.9063 15.1667 18.8298 15 18.7619L16.55 17.2335C17.0167 17.5052 17.375 17.8151 17.625 18.1633C17.875 18.5114 18 18.8978 18 19.3223C18 20.2224 17.4417 20.9569 16.325 21.5258C15.2083 22.0948 13.7667 22.3792 12 22.3792ZM12 19.3223C9.65 17.5561 7.89583 15.8409 6.7375 14.1766C5.57917 12.5123 5 10.8819 5 9.28557C5 8.0798 5.2125 7.02263 5.6375 6.11406C6.0625 5.20548 6.60833 4.44551 7.275 3.83413C7.94167 3.22275 8.69167 2.76422 9.525 2.45853C10.3583 2.15284 11.1833 2 12 2C12.8167 2 13.6417 2.15284 14.475 2.45853C15.3083 2.76422 16.0583 3.22275 16.725 3.83413C17.3917 4.44551 17.9375 5.20548 18.3625 6.11406C18.7875 7.02263 19 8.0798 19 9.28557C19 10.8819 18.4208 12.5123 17.2625 14.1766C16.1042 15.8409 14.35 17.5561 12 19.3223ZM12 11.1707C12.55 11.1707 13.0208 10.9711 13.4125 10.572C13.8042 10.1729 14 9.69316 14 9.13273C14 8.5723 13.8042 8.09254 13.4125 7.69345C13.0208 7.29435 12.55 7.09481 12 7.09481C11.45 7.09481 10.9792 7.29435 10.5875 7.69345C10.1958 8.09254 10 8.5723 10 9.13273C10 9.69316 10.1958 10.1729 10.5875 10.572C10.9792 10.9711 11.45 11.1707 12 11.1707Z" fill="#2D2D2D" fill-opacity="0.79"/>
</g>
</svg>
