<svg width="24" height="24" viewBox="0 0 24 24" fill="none" xmlns="http://www.w3.org/2000/svg">
<mask id="mask0_352_138" style="mask-type:alpha" maskUnits="userSpaceOnUse" x="0" y="0" width="24" height="24">
<rect width="24" height="24" fill="#848484"/>
</mask>
<g mask="url(#mask0_352_138)">
<path d="M12.0002 16.9998C12.2836 16.9998 12.5211 16.9039 12.7127 16.7123C12.9044 16.5206 13.0002 16.2831 13.0002 15.9998C13.0002 15.7164 12.9044 15.4789 12.7127 15.2873C12.5211 15.0956 12.2836 14.9998 12.0002 14.9998C11.7169 14.9998 11.4794 15.0956 11.2877 15.2873C11.0961 15.4789 11.0002 15.7164 11.0002 15.9998C11.0002 16.2831 11.0961 16.5206 11.2877 16.7123C11.4794 16.9039 11.7169 16.9998 12.0002 16.9998ZM11.0002 12.9998H13.0002V6.99976H11.0002V12.9998ZM12.0002 21.9998C10.6169 21.9998 9.31691 21.7373 8.10024 21.2123C6.88358 20.6873 5.82524 19.9748 4.92524 19.0748C4.02524 18.1748 3.31274 17.1164 2.78774 15.8998C2.26274 14.6831 2.00024 13.3831 2.00024 11.9998C2.00024 10.6164 2.26274 9.31642 2.78774 8.09975C3.31274 6.88309 4.02524 5.82476 4.92524 4.92476C5.82524 4.02476 6.88358 3.31226 8.10024 2.78726C9.31691 2.26226 10.6169 1.99976 12.0002 1.99976C13.3836 1.99976 14.6836 2.26226 15.9002 2.78726C17.1169 3.31226 18.1752 4.02476 19.0752 4.92476C19.9752 5.82476 20.6877 6.88309 21.2127 8.09975C21.7377 9.31642 22.0002 10.6164 22.0002 11.9998C22.0002 13.3831 21.7377 14.6831 21.2127 15.8998C20.6877 17.1164 19.9752 18.1748 19.0752 19.0748C18.1752 19.9748 17.1169 20.6873 15.9002 21.2123C14.6836 21.7373 13.3836 21.9998 12.0002 21.9998ZM12.0002 19.9998C14.2336 19.9998 16.1252 19.2248 17.6752 17.6748C19.2252 16.1248 20.0002 14.2331 20.0002 11.9998C20.0002 9.76642 19.2252 7.87476 17.6752 6.32476C16.1252 4.77476 14.2336 3.99976 12.0002 3.99976C9.76691 3.99976 7.87524 4.77476 6.32524 6.32476C4.77524 7.87476 4.00024 9.76642 4.00024 11.9998C4.00024 14.2331 4.77524 16.1248 6.32524 17.6748C7.87524 19.2248 9.76691 19.9998 12.0002 19.9998Z" fill="#848484"/>
</g>
</svg>
