<svg width="24" height="24" viewBox="0 0 24 24" fill="none" xmlns="http://www.w3.org/2000/svg">
<path d="M10.9041 24V21.8082C8.621 21.5525 6.6621 20.6073 5.0274 18.9726C3.39269 17.3379 2.44749 15.379 2.19178 13.0959H0V10.9041H2.19178C2.44749 8.621 3.39269 6.6621 5.0274 5.0274C6.6621 3.39269 8.621 2.44749 10.9041 2.19178V0H13.0959V2.19178C15.379 2.44749 17.3379 3.39269 18.9726 5.0274C20.6073 6.6621 21.5525 8.621 21.8082 10.9041H24V13.0959H21.8082C21.5525 15.379 20.6073 17.3379 18.9726 18.9726C17.3379 20.6073 15.379 21.5525 13.0959 21.8082V24H10.9041ZM12 19.6712C14.1187 19.6712 15.9269 18.9224 17.4247 17.4247C18.9224 15.9269 19.6712 14.1187 19.6712 12C19.6712 9.88128 18.9224 8.07306 17.4247 6.57534C15.9269 5.07763 14.1187 4.32877 12 4.32877C9.88128 4.32877 8.07306 5.07763 6.57534 6.57534C5.07763 8.07306 4.32877 9.88128 4.32877 12C4.32877 14.1187 5.07763 15.9269 6.57534 17.4247C8.07306 18.9224 9.88128 19.6712 12 19.6712ZM12 16.3836C10.7945 16.3836 9.76256 15.9543 8.90411 15.0959C8.04566 14.2374 7.61644 13.2055 7.61644 12C7.61644 10.7945 8.04566 9.76256 8.90411 8.90411C9.76256 8.04566 10.7945 7.61644 12 7.61644C13.2055 7.61644 14.2374 8.04566 15.0959 8.90411C15.9543 9.76256 16.3836 10.7945 16.3836 12C16.3836 13.2055 15.9543 14.2374 15.0959 15.0959C14.2374 15.9543 13.2055 16.3836 12 16.3836ZM12 14.1918C12.6027 14.1918 13.1187 13.9772 13.5479 13.5479C13.9772 13.1187 14.1918 12.6027 14.1918 12C14.1918 11.3973 13.9772 10.8813 13.5479 10.4521C13.1187 10.0228 12.6027 9.80822 12 9.80822C11.3973 9.80822 10.8813 10.0228 10.4521 10.4521C10.0228 10.8813 9.80822 11.3973 9.80822 12C9.80822 12.6027 10.0228 13.1187 10.4521 13.5479C10.8813 13.9772 11.3973 14.1918 12 14.1918Z" fill="#00A057"/>
</svg>
