<svg width="62" height="62" viewBox="0 0 62 62" fill="none" xmlns="http://www.w3.org/2000/svg">
<g filter="url(#filter0_d_752_1864)">
<rect x="8" y="8" width="46" height="46" rx="23" fill="white" shape-rendering="crispEdges"/>
<rect x="8.5" y="8.5" width="45" height="45" rx="22.5" stroke="#43D687" shape-rendering="crispEdges"/>
<path d="M29.9041 43V40.8082C27.621 40.5525 25.6621 39.6073 24.0274 37.9726C22.3927 36.3379 21.4475 34.379 21.1918 32.0959H19V29.9041H21.1918C21.4475 27.621 22.3927 25.6621 24.0274 24.0274C25.6621 22.3927 27.621 21.4475 29.9041 21.1918V19H32.0959V21.1918C34.379 21.4475 36.3379 22.3927 37.9726 24.0274C39.6073 25.6621 40.5525 27.621 40.8082 29.9041H43V32.0959H40.8082C40.5525 34.379 39.6073 36.3379 37.9726 37.9726C36.3379 39.6073 34.379 40.5525 32.0959 40.8082V43H29.9041ZM31 38.6712C33.1187 38.6712 34.9269 37.9224 36.4247 36.4247C37.9224 34.9269 38.6712 33.1187 38.6712 31C38.6712 28.8813 37.9224 27.0731 36.4247 25.5753C34.9269 24.0776 33.1187 23.3288 31 23.3288C28.8813 23.3288 27.0731 24.0776 25.5753 25.5753C24.0776 27.0731 23.3288 28.8813 23.3288 31C23.3288 33.1187 24.0776 34.9269 25.5753 36.4247C27.0731 37.9224 28.8813 38.6712 31 38.6712ZM31 35.3836C29.7945 35.3836 28.7626 34.9543 27.9041 34.0959C27.0457 33.2374 26.6164 32.2055 26.6164 31C26.6164 29.7945 27.0457 28.7626 27.9041 27.9041C28.7626 27.0457 29.7945 26.6164 31 26.6164C32.2055 26.6164 33.2374 27.0457 34.0959 27.9041C34.9543 28.7626 35.3836 29.7945 35.3836 31C35.3836 32.2055 34.9543 33.2374 34.0959 34.0959C33.2374 34.9543 32.2055 35.3836 31 35.3836ZM31 33.1918C31.6027 33.1918 32.1187 32.9772 32.5479 32.5479C32.9772 32.1187 33.1918 31.6027 33.1918 31C33.1918 30.3973 32.9772 29.8813 32.5479 29.4521C32.1187 29.0228 31.6027 28.8082 31 28.8082C30.3973 28.8082 29.8813 29.0228 29.4521 29.4521C29.0228 29.8813 28.8082 30.3973 28.8082 31C28.8082 31.6027 29.0228 32.1187 29.4521 32.5479C29.8813 32.9772 30.3973 33.1918 31 33.1918Z" fill="#00A057"/>
</g>
<defs>
<filter id="filter0_d_752_1864" x="0" y="0" width="62" height="62" filterUnits="userSpaceOnUse" color-interpolation-filters="sRGB">
<feFlood flood-opacity="0" result="BackgroundImageFix"/>
<feColorMatrix in="SourceAlpha" type="matrix" values="0 0 0 0 0 0 0 0 0 0 0 0 0 0 0 0 0 0 127 0" result="hardAlpha"/>
<feOffset/>
<feGaussianBlur stdDeviation="4"/>
<feComposite in2="hardAlpha" operator="out"/>
<feColorMatrix type="matrix" values="0 0 0 0 0 0 0 0 0 0 0 0 0 0 0 0 0 0 0.25 0"/>
<feBlend mode="normal" in2="BackgroundImageFix" result="effect1_dropShadow_752_1864"/>
<feBlend mode="normal" in="SourceGraphic" in2="effect1_dropShadow_752_1864" result="shape"/>
</filter>
</defs>
</svg>
