<svg width="20" height="20" viewBox="0 0 20 20" fill="none" xmlns="http://www.w3.org/2000/svg">
<path d="M14.0533 2.48024C14.2704 2.26312 14.5282 2.0909 14.8119 1.97339C15.0956 1.85589 15.3996 1.79541 15.7067 1.79541C16.0137 1.79541 16.3178 1.85589 16.6014 1.97339C16.8851 2.0909 17.1429 2.26312 17.36 2.48024C17.5771 2.69736 17.7493 2.95512 17.8668 3.2388C17.9843 3.52248 18.0448 3.82652 18.0448 4.13358C18.0448 4.44063 17.9843 4.74467 17.8668 5.02835C17.7493 5.31203 17.5771 5.56979 17.36 5.78691L6.19999 16.9469L1.65332 18.1869L2.89332 13.6402L14.0533 2.48024Z" fill="#43D687"/>
</svg>
