<svg width="94" height="94" viewBox="0 0 94 94" fill="none" xmlns="http://www.w3.org/2000/svg">
<rect width="94" height="94" rx="7" fill="white"/>
<mask id="mask0_581_1341" style="mask-type:alpha" maskUnits="userSpaceOnUse" x="25" y="25" width="44" height="44">
<rect x="25" y="25" width="44" height="44" fill="#D9D9D9"/>
</mask>
<g mask="url(#mask0_581_1341)">
<path d="M47.0002 57.0833C49.2919 57.0833 51.2398 56.2812 52.844 54.6771C54.4481 53.0729 55.2502 51.125 55.2502 48.8333C55.2502 46.5417 54.4481 44.5938 52.844 42.9896C51.2398 41.3854 49.2919 40.5833 47.0002 40.5833C44.7085 40.5833 42.7606 41.3854 41.1565 42.9896C39.5523 44.5938 38.7502 46.5417 38.7502 48.8333C38.7502 51.125 39.5523 53.0729 41.1565 54.6771C42.7606 56.2812 44.7085 57.0833 47.0002 57.0833ZM47.0002 53.4167C45.7169 53.4167 44.6321 52.9736 43.746 52.0875C42.8599 51.2014 42.4169 50.1167 42.4169 48.8333C42.4169 47.55 42.8599 46.4653 43.746 45.5792C44.6321 44.6931 45.7169 44.25 47.0002 44.25C48.2835 44.25 49.3683 44.6931 50.2544 45.5792C51.1405 46.4653 51.5835 47.55 51.5835 48.8333C51.5835 50.1167 51.1405 51.2014 50.2544 52.0875C49.3683 52.9736 48.2835 53.4167 47.0002 53.4167ZM32.3335 63.5C31.3252 63.5 30.462 63.141 29.744 62.4229C29.0259 61.7049 28.6669 60.8417 28.6669 59.8333V37.8333C28.6669 36.825 29.0259 35.9618 29.744 35.2438C30.462 34.5257 31.3252 34.1667 32.3335 34.1667H38.1085L41.5002 30.5H52.5002L55.8919 34.1667H61.6669C62.6752 34.1667 63.5384 34.5257 64.2565 35.2438C64.9745 35.9618 65.3335 36.825 65.3335 37.8333V59.8333C65.3335 60.8417 64.9745 61.7049 64.2565 62.4229C63.5384 63.141 62.6752 63.5 61.6669 63.5H32.3335ZM32.3335 59.8333H61.6669V37.8333H54.2419L50.896 34.1667H43.1044L39.7585 37.8333H32.3335V59.8333Z" fill="#959595"/>
</g>
</svg>
