<svg width="44" height="44" viewBox="0 0 44 44" fill="none" xmlns="http://www.w3.org/2000/svg">
<mask id="mask0_776_2904" style="mask-type:alpha" maskUnits="userSpaceOnUse" x="0" y="0" width="44" height="44">
<rect width="43.4031" height="43.4031" fill="#D9D9D9"/>
</mask>
<g mask="url(#mask0_776_2904)">
<path d="M13.7939 11.573L18.8576 5.01728C19.2193 4.53502 19.6488 4.18087 20.1462 3.95481C20.6435 3.72875 21.1634 3.61572 21.706 3.61572C22.2485 3.61572 22.7684 3.72875 23.2658 3.95481C23.7631 4.18087 24.1926 4.53502 24.5543 5.01728L29.618 11.573L37.304 14.15C38.0876 14.3911 38.7055 14.8357 39.1576 15.4838C39.6097 16.1318 39.8358 16.8476 39.8358 17.6313C39.8358 17.993 39.7831 18.3547 39.6776 18.7164C39.5721 19.0781 39.3988 19.4247 39.1576 19.7563L34.1844 26.8093L34.3652 34.224C34.3953 35.2789 34.0487 36.1681 33.3253 36.8914C32.602 37.6148 31.758 37.9765 30.7935 37.9765C30.7332 37.9765 30.4017 37.9313 29.7988 37.8409L21.706 35.5803L13.6131 37.8409C13.4624 37.9012 13.2966 37.9388 13.1158 37.9539C12.9349 37.969 12.7691 37.9765 12.6184 37.9765C11.6539 37.9765 10.81 37.6148 10.0866 36.8914C9.36321 36.1681 9.01658 35.2789 9.04673 34.224L9.22757 26.764L4.29951 19.7563C4.05838 19.4247 3.88507 19.0781 3.77958 18.7164C3.67408 18.3547 3.62134 17.993 3.62134 17.6313C3.62134 16.8778 3.83986 16.177 4.27691 15.529C4.71395 14.8809 5.32431 14.4213 6.10797 14.15L13.7939 11.573ZM16.0093 14.6926L7.23826 17.5861L12.8445 25.679L12.6637 34.3144L21.706 31.8277L30.7483 34.3596L30.5674 25.679L36.1737 17.6765L27.4026 14.6926L21.706 7.23265L16.0093 14.6926Z" fill="#9F9F9F"/>
</g>
</svg>
