<svg width="44" height="44" viewBox="0 0 44 44" fill="none" xmlns="http://www.w3.org/2000/svg">
<mask id="mask0_776_2892" style="mask-type:alpha" maskUnits="userSpaceOnUse" x="0" y="0" width="44" height="44">
<rect x="0.05" y="0.05" width="43.3031" height="43.3031" fill="#D9D9D9" stroke="white" stroke-width="0.1"/>
</mask>
<g mask="url(#mask0_776_2892)">
<path d="M21.7046 3.66553C22.2398 3.66557 22.7529 3.77741 23.2437 4.00049C23.7324 4.22271 24.1551 4.57127 24.5122 5.04736H24.5132L29.5767 11.604L29.5864 11.6157L29.6001 11.6206L37.2866 14.1978H37.2876C38.0609 14.4357 38.6693 14.8738 39.1147 15.5122C39.5611 16.1519 39.7837 16.858 39.7837 17.6313C39.7837 17.9881 39.7317 18.3453 39.6274 18.7026C39.5237 19.0582 39.3537 19.3999 39.1157 19.7271H39.1147L34.1421 26.7808L34.1323 26.7944V26.8101L34.314 34.2251C34.3437 35.2667 34.0017 36.1427 33.2886 36.856C32.5739 37.5706 31.7419 37.9263 30.7915 37.9263C30.7653 37.9262 30.6715 37.9159 30.5044 37.8931C30.3402 37.8707 30.1091 37.8372 29.811 37.7925L21.7173 35.5317L21.7046 35.5288L21.6909 35.5317L13.5981 37.7925L13.5933 37.7944C13.4477 37.8527 13.2863 37.8891 13.1099 37.9038C12.9301 37.9188 12.7658 37.9263 12.6167 37.9263C11.6664 37.9263 10.8352 37.5705 10.1206 36.856C9.40729 36.1426 9.06545 35.2668 9.09521 34.2251L9.27588 26.7651V26.7485L9.26709 26.7349L4.33838 19.7271L4.17236 19.479C4.01907 19.2282 3.90351 18.9694 3.82568 18.7026C3.72146 18.3453 3.66944 17.9881 3.66943 17.6313C3.66943 16.8882 3.88521 16.1972 4.31689 15.5571C4.69368 14.9984 5.20076 14.5811 5.84033 14.3062L6.12256 14.1978L13.8081 11.6206L13.8228 11.6157L13.8315 11.604L18.895 5.04736H18.896C19.2532 4.57111 19.6766 4.22273 20.1655 4.00049C20.6563 3.77744 21.1693 3.66553 21.7046 3.66553Z" fill="#FEFF00" stroke="#9F9F9F" stroke-width="0.1"/>
</g>
</svg>
