<svg width="24" height="24" viewBox="0 0 24 24" fill="none" xmlns="http://www.w3.org/2000/svg">
<rect width="24" height="24" rx="12" fill="#DEDEDE"/>
<path d="M6.77286 17.9823C6.54633 18.0325 6.35128 17.9759 6.1877 17.8123C6.02413 17.6487 5.96746 17.4537 6.01771 17.2271L6.61392 14.3651L9.63489 17.3861L6.77286 17.9823ZM9.63489 17.3861L6.61392 14.3651L14.6104 6.36867C14.8561 6.12289 15.1604 6 15.5232 6C15.886 6 16.1903 6.12289 16.4361 6.36867L17.6313 7.56394C17.8771 7.80972 18 8.114 18 8.47678C18 8.83957 17.8771 9.14385 17.6313 9.38963L9.63489 17.3861ZM15.3725 7.1199L8.08467 14.4008L9.59925 15.9153L16.8801 8.62753C16.9212 8.58643 16.9418 8.53505 16.9418 8.4734C16.9418 8.41163 16.9212 8.36019 16.8801 8.31909L15.6809 7.1199C15.6398 7.0788 15.5884 7.05825 15.5266 7.05825C15.4649 7.05825 15.4136 7.0788 15.3725 7.1199Z" fill="#303030"/>
</svg>
